<svg width="19" height="18" viewBox="0 0 19 18" fill="none" xmlns="http://www.w3.org/2000/svg">
<path fill-rule="evenodd" clip-rule="evenodd" d="M14.4101 2.95833C14.6819 3.92073 15.5658 4.625 16.6157 4.625C17.8824 4.625 18.9074 3.6 18.9074 2.33333C18.9074 1.06667 17.8824 0.041666 16.6157 0.041666C15.5658 0.041666 14.6819 0.745934 14.4101 1.70833H11.6157C9.59906 1.70833 8.49072 2.81667 8.49072 4.83333V8.375H5.48797C5.21625 7.4126 4.33234 6.70833 3.28239 6.70833C2.01572 6.70833 0.990723 7.73333 0.990723 9C0.990723 10.2667 2.01572 11.2917 3.28239 11.2917C4.33234 11.2917 5.21625 10.5874 5.48797 9.625H8.49072V13.1667C8.49072 15.1833 9.59906 16.2917 11.6157 16.2917H14.4101C14.6819 17.2541 15.5658 17.9583 16.6157 17.9583C17.8824 17.9583 18.9074 16.9333 18.9074 15.6667C18.9074 14.4 17.8824 13.375 16.6157 13.375C15.5658 13.375 14.6819 14.0793 14.4101 15.0417H11.6157C10.2991 15.0417 9.74072 14.4833 9.74072 13.1667V9.625H14.4101C14.6819 10.5874 15.5658 11.2917 16.6157 11.2917C17.8824 11.2917 18.9074 10.2667 18.9074 9C18.9074 7.73333 17.8824 6.70833 16.6157 6.70833C15.5658 6.70833 14.6819 7.4126 14.4101 8.375H9.74072V4.83333C9.74072 3.51667 10.2991 2.95833 11.6157 2.95833H14.4101ZM15.5741 15.6667C15.5741 16.2417 16.0407 16.7083 16.6157 16.7083C17.1907 16.7083 17.6574 16.2417 17.6574 15.6667C17.6574 15.0917 17.1907 14.625 16.6157 14.625C16.0407 14.625 15.5741 15.0917 15.5741 15.6667ZM15.5741 2.33333C15.5741 1.75833 16.0407 1.29167 16.6157 1.29167C17.1907 1.29167 17.6574 1.75833 17.6574 2.33333C17.6574 2.90833 17.1907 3.375 16.6157 3.375C16.0407 3.375 15.5741 2.90833 15.5741 2.33333ZM3.28239 7.95833C3.85739 7.95833 4.32406 8.425 4.32406 9C4.32406 9.575 3.85739 10.0417 3.28239 10.0417C2.70739 10.0417 2.24072 9.575 2.24072 9C2.24072 8.425 2.70739 7.95833 3.28239 7.95833ZM15.5741 9C15.5741 8.425 16.0407 7.95833 16.6157 7.95833C17.1907 7.95833 17.6574 8.425 17.6574 9C17.6574 9.575 17.1907 10.0417 16.6157 10.0417C16.0407 10.0417 15.5741 9.575 15.5741 9Z" fill="#263238"/>
</svg>
