<svg width="19" height="18" viewBox="0 0 19 18" fill="none" xmlns="http://www.w3.org/2000/svg">
<path d="M6.40739 6.7002H4.53239C4.19072 6.7002 3.90739 6.41686 3.90739 6.0752C3.90739 5.73353 4.19072 5.4502 4.53239 5.4502H6.40739C6.74906 5.4502 7.03239 5.73353 7.03239 6.0752C7.03239 6.41686 6.74906 6.7002 6.40739 6.7002Z" fill="#263238"/>
<path d="M4.53239 9.2002H7.03239C7.37406 9.2002 7.65739 8.91686 7.65739 8.5752C7.65739 8.23353 7.37406 7.9502 7.03239 7.9502H4.53239C4.19072 7.9502 3.90739 8.23353 3.90739 8.5752C3.90739 8.91686 4.19072 9.2002 4.53239 9.2002Z" fill="#263238"/>
<path fill-rule="evenodd" clip-rule="evenodd" d="M9.24072 17.225C9.44906 17.3417 9.69906 17.4 9.94906 17.4C10.1991 17.4 10.4407 17.35 10.6407 17.2333C12.1657 16.3917 14.9157 15.4833 16.6324 15.2583L16.9074 15.225C18.0074 15.0917 18.9074 14.075 18.9074 12.9583V2.90001C18.9074 2.24167 18.6491 1.64167 18.1741 1.20834C17.7074 0.775007 17.0824 0.55834 16.4741 0.616674H16.3741C14.5324 0.775007 11.7657 1.70834 10.1991 2.69167L10.0657 2.77501C10.0157 2.80001 9.89072 2.80001 9.83239 2.76667L9.63239 2.65001C8.06572 1.66667 5.29906 0.750007 3.46572 0.60834C2.81572 0.550007 2.19906 0.75834 1.72406 1.19167C1.24906 1.62501 0.990723 2.22501 0.990723 2.88334V12.95C0.990723 14.0583 1.89072 15.0833 2.98239 15.2167L3.22406 15.25C4.94072 15.475 7.68239 16.375 9.24072 17.225ZM2.56572 2.11667C2.75739 1.94167 2.99906 1.85001 3.26572 1.85001H3.36572C4.99906 1.98334 7.56572 2.83334 8.99072 3.70834L9.19072 3.82501C9.23335 3.85155 9.27791 3.87552 9.32406 3.89693V15.8684C7.62578 15.0427 5.09511 14.2439 3.39072 14.0167L3.14072 13.9833C2.66572 13.9167 2.24072 13.4417 2.24072 12.95V2.88334C2.24072 2.58334 2.35739 2.30834 2.56572 2.11667ZM16.4741 14.0167C14.7814 14.2414 12.2743 15.0315 10.5741 15.8607V3.90387C10.6318 3.87861 10.6875 3.84955 10.7407 3.81667L10.8741 3.72501C12.2741 2.85001 14.8407 1.99167 16.4324 1.85001H16.5324C16.8407 1.83334 17.1157 1.92501 17.3324 2.11667C17.5407 2.31667 17.6574 2.58334 17.6574 2.89167V12.95C17.6574 13.4417 17.2324 13.925 16.7574 13.9833L16.4741 14.0167Z" fill="#263238"/>
</svg>
