<svg width="19" height="18" viewBox="0 0 19 18" fill="none" xmlns="http://www.w3.org/2000/svg">
<path d="M12.0657 13.4499C12.174 13.6666 12.3907 13.7916 12.624 13.7916C12.7157 13.7916 12.8074 13.7666 12.9074 13.7083C13.549 13.3916 14.099 12.9083 14.499 12.3083C14.8324 11.8083 14.8324 11.1666 14.499 10.6666C14.099 10.0666 13.549 9.58327 12.9074 9.25827C12.599 9.10827 12.224 9.23327 12.0657 9.5416C11.9157 9.84993 12.0407 10.2249 12.349 10.3833C12.799 10.6083 13.1824 10.9499 13.4574 11.3666C13.5074 11.4499 13.5074 11.5499 13.4574 11.6249C13.1824 12.0416 12.799 12.3833 12.349 12.6083C12.0324 12.7666 11.9074 13.1416 12.0657 13.4499Z" fill="#263238"/>
<path d="M7.17402 13.7249C7.25736 13.7666 7.35736 13.7916 7.44902 13.7916C7.67402 13.7916 7.89902 13.6666 8.01569 13.4666C8.16569 13.1583 8.04069 12.7833 7.73236 12.6249C7.28236 12.3999 6.89902 12.0583 6.62402 11.6416C6.57402 11.5583 6.57402 11.4583 6.62402 11.3833C6.89902 10.9666 7.28236 10.6249 7.73236 10.3999C8.04902 10.2416 8.17402 9.8666 8.01569 9.55827C7.85736 9.24994 7.48236 9.1166 7.17402 9.27494C6.53236 9.5916 5.98236 10.0749 5.58236 10.6749C5.24902 11.1749 5.24902 11.8166 5.58236 12.3166C5.98236 12.9166 6.53236 13.3999 7.17402 13.7249Z" fill="#263238"/>
<path fill-rule="evenodd" clip-rule="evenodd" d="M12.4491 17.9583H7.44906C2.92406 17.9583 0.990723 16.025 0.990723 11.5V6.5C0.990723 1.975 2.92406 0.041666 7.44906 0.041666H12.4491C16.9741 0.041666 18.9074 1.975 18.9074 6.5V11.5C18.9074 16.025 16.9741 17.9583 12.4491 17.9583ZM2.24199 6.29977C2.24114 6.36576 2.24072 6.4325 2.24072 6.5V11.5C2.24072 15.3417 3.60739 16.7083 7.44906 16.7083H12.4491C16.2907 16.7083 17.6574 15.3417 17.6574 11.5V6.5C17.6574 6.42976 17.6569 6.36035 17.656 6.29175L2.24199 6.29977ZM2.3215 5.04973C2.66445 2.30758 4.13686 1.29167 7.44906 1.29167H12.4491C15.7581 1.29167 17.2308 2.30562 17.5756 5.0418L2.3215 5.04973Z" fill="#263238"/>
</svg>
