<svg width="19" height="18" viewBox="0 0 19 18" fill="none" xmlns="http://www.w3.org/2000/svg">
<path d="M9.32406 14C9.32406 14.3417 9.60739 14.625 9.94906 14.625C10.2907 14.625 10.5741 14.3417 10.5741 14V11.5C10.5741 11.1583 10.2907 10.875 9.94906 10.875C9.60739 10.875 9.32406 11.1583 9.32406 11.5V14Z" fill="#263238"/>
<path fill-rule="evenodd" clip-rule="evenodd" d="M0.990723 13.8166C0.990723 16.1 2.84072 17.9583 5.12406 17.9583H14.7741C17.0574 17.9583 18.9074 16.1 18.9074 13.825V7.75831C18.9074 6.54998 18.1324 5.06664 17.1407 4.37498L11.9907 0.766644C10.5907 -0.216689 8.43239 -0.166689 7.08239 0.883311L2.59072 4.38331C1.69072 5.08331 0.990723 6.50831 0.990723 7.64164V13.8166ZM3.35739 5.36664L7.84906 1.86664C8.75739 1.15831 10.3241 1.12498 11.2741 1.79164L16.4241 5.39998C17.0824 5.84998 17.6574 6.95831 17.6574 7.75831V13.825C17.6574 15.4166 16.3657 16.7083 14.7741 16.7083H5.12406C3.53239 16.7083 2.24072 15.4083 2.24072 13.8166V7.64164C2.24072 6.89164 2.76572 5.83331 3.35739 5.36664Z" fill="#263238"/>
</svg>
